# xmcd CD database file
#
# Track frame offsets:
#	150
#	29065
#	42150
#	67443
#	89159
#	117272
#	143746
#	162116
#	195752
#	205322
#	219937
#	244662
#
# Disc length: 3589 seconds
#
# Revision: 0
# Processed by: cddbd v1.5.2PL0 Copyright (c) Steve Scherf et al.
# Submitted via: CDex 1.51
#
DISCID=b00e030c
DTITLE=The Matthew Herbert Big Band - There's Me And There's You
DYEAR=2008
DGENRE=Jazz
TTITLE0=The Story
TTITLE1=Pontificate
TTITLE2=Waiting
TTITLE3=Yessness
TTITLE4=Battery
TTITLE5=Regina
TTITLE6=Rich Man's Prayer
TTITLE7=Breathe
TTITLE8=Knowing
TTITLE9=Nonsounds
TTITLE10=One Life
TTITLE11=Just Swing
EXTD=YEAR: 2008
EXTT0=
EXTT1=
EXTT2=
EXTT3=
EXTT4=
EXTT5=
EXTT6=
EXTT7=
EXTT8=
EXTT9=
EXTT10=
EXTT11=
PLAYORDER=
